<?xml version="1.0" encoding="utf-8"?>
<svg version="1.2" baseProfile="tiny-ps" viewBox="0 0 300 300" xmlns:xlink="http://www.w3.org/1999/xlink" xmlns="http://www.w3.org/2000/svg">
  <title>MujurID</title>
  <g>
    <g fill="#32cb30" transform="matrix(.1 0 0 -.1 0 300)">
      <path d="M0 1500V0h3000v3000H0V1500z" />
    </g>
    <g fill="#34a634" transform="matrix(.1 0 0 -.1 0 300)">
      <path d="m1 2338 1-663 13 70c7 39 18 86 24 105l11 35-5-30c-3-16-12-75-21-130L8 1625v-250l16-104c9-57 14-106 12-108-2-3-9 29-16 69-6 40-13 78-15 83-2 6-4-288-4-652L0 0l658 1 657 1-45 9c-25 4-60 11-79 14-18 4-31 8-29 10s46-3 98-12l95-16h290l95 16c52 9 133 28 180 41 46 14 86 23 88 21 8-8-179-57-298-78-14-2 271-5 633-6l657-1-1 658-1 657-13-70c-7-38-18-86-24-105l-11-35 5 30c2 17 12 73 21 125l17 95v290l-16 95c-9 52-14 96-12 98s6-11 10-29c3-19 10-54 14-79l9-45 1 658 1 657-662-1c-365 0-658-2-653-4 6-2 43-9 83-15 40-7 72-14 69-16-2-2-51 3-108 12l-104 16h-260l-95-16c-52-9-108-19-125-21l-30-5 35 11c19 6 67 17 105 24l70 13-662 1-663 1 1-662zm1876 616c-3-3-12-4-19-1l-13 5 19 1c11 1 17-2 13-5zm-867-43c-139-50-254-109-370-189l-95-66-105-106-105-105-61-90c-77-113-137-231-185-365-21-58-38-100-38-94-2 25 44 147 94 251l54 113 63 92 63 93 115 115 115 115 93 63 92 63 113 54c110 53 217 93 247 94 8 0-32-17-90-38zm925 29 20-9h-15c-8 0-24 4-35 9l-20 9h15c8 0 24-4 35-9zm90-31 40-19-25 6c-14 4-38 12-55 19l-30 13h15c8 0 33-8 55-19zm85-34c14-8 21-14 15-14-5 0-21 6-35 14s-20 14-15 14c6 0 21-6 35-14zm124-61c45-26 122-77 171-114l90-68 81-84c85-87 171-199 219-283 42-73 27-54-56 70l-73 110-110 110-111 111-90 61c-49 33-118 75-152 92-57 28-74 41-56 41 3 0 42-21 87-46zm-1034-371v-28l106-106 106-106-32-56-32-57 50-52 51-53 29 28 29 28 22-27 22-28 49 49c28 27 50 53 50 59 0 5-14 31-31 59l-31 50 106 106 106 106v55h90v-80h-75l-97-97-97-97 31-54 31-54-57-57-57-58 46-44c25-24 50-44 55-44 12 0 140 125 140 136 0 5-13 30-30 57l-29 47 109 110 110 110v35h80v-80h-94l-88-89-89-88 30-52c17-29 31-55 31-59 0-3-34-41-76-83l-77-77 24-24c14-12 32-29 42-37l18-14 145 144 144 144v85h80v-80h-45l-132-132-133-133v-88l17-19 17-19 78 78 78 78 50-28c28-16 55-27 61-25s53 46 105 98l94 95v55h80v-80h-65l-103-103-103-104-59 31-59 31-71-70-70-69 52-53 52-53 57 56 57 57 55-31 54-30 91 91 92 92v75h80v-80h-56l-96-100c-53-55-102-100-108-100-7 0-34 12-61 27l-48 28-51-50-50-49 25-25 25-25-25-26-25-26 50-49 51-50 55 29 55 29 102-101 102-102h55v-80h-80v75l-90 90-91 90-49-27c-28-16-55-28-62-28s-36 23-65 52l-53 52-50-49-50-49 72-73 71-72 57 32 57 31 94-92 93-92h76v-80h-80v45l-95 95-95 95-18-11c-9-5-33-20-53-32l-35-21-74 74c-41 41-79 75-85 75s-26-16-45-35l-34-35 149-150 150-150h95v-80h-90v38l-161 163-161 162-40-40-40-40 64-65c34-35 69-71 76-81l14-16-31-54-31-54 79-76 79-77h72v-80h-80v55l-89 89-89 89 29 49c16 27 29 52 29 56s-31 39-70 77l-70 69-50-49-50-49 57-58 58-58-11-18c-5-9-20-34-33-55l-23-38 88-89 88-90h86v-80h-80v45l-105 105-104 104 30 54 31 53-23 27c-48 52-68 72-75 72-4 0-18-10-31-22l-23-21-25 23-26 24-51-51-51-51 32-53 33-52-106-106-106-106v-45h-80v80h85l89 89 89 89-33 57-33 57 57 57 56 57-50 49-50 50-72-72-71-71 31-55 30-54-89-89-89-89v-55h-80v80h75l78 78 78 79-31 53-31 53 77 78 78 79-39 40-39 40-163-162-163-163v-35h-78l-4 12c-2 6-2 24 0 40l4 28h83l150 150 149 150-34 35c-19 19-39 35-45 35s-44-33-84-74l-74-74-47 29c-26 16-51 29-56 29s-50-42-101-92l-93-93v-45h-80v80h85l91 91 92 92 55-31 54-30 72 72 71 72-50 49-50 50-57-57-56-56-58 32-58 31-91-90-90-90v-75h-80v80h55l102 102 103 102 55-29 54-30 51 50 50 49-22 23-21 23 23 25 24 26-52 52-52 51-55-29-55-30-102 103-103 102h-55v80h80v-75l92-92 91-92 58 32 58 32 58-57 58-57 50 50 50 49-73 72-73 73-58-32-58-31-104 104-104 104h-65v80h80v-55l100-100 100-100 55 30 55 29 80-79 79-78 15 13 16 12v103l-133 133-132 132h-45v80h80v-85l142-142c79-79 148-143 153-143 6 0 26 16 45 35l34 35-77 78c-42 43-77 81-77 84 0 4 14 31 31 59l30 52-88 89-88 88h-95v80h80v-35l110-110 109-109-31-54-31-54 69-69c38-38 73-69 79-69s31 20 55 45l44 45-58 59-59 59 31 54 31 54-97 97-97 97h-75v80h90v-27zm1674-329c21-47 36-87 34-89s-22 39-45 90c-22 52-37 93-33 90s24-43 44-91zm66-173c11-37 20-74 19-82 0-8-11 22-24 66-28 91-26 85-20 85 2 0 13-31 25-69zM47 1128l-5-13-1 19c-1 11 2 17 5 13 3-3 4-12 1-19zm22-68v-15l-9 20c-5 11-9 27-9 35v15l9-20c5-11 9-27 9-35zm2865-19c-8-29-17-51-19-49s3 28 11 57c9 29 18 51 20 48 2-2-3-27-12-56zM104 960l6-25-19 40c-11 22-19 47-19 55v15l13-30c7-16 15-41 19-55zm2791-30c-24-52-30-46-8 8 9 23 18 40 21 37s-3-23-13-45zM139 875c0-5-6 1-14 15s-14 30-14 35c0 6 6-1 14-15s14-29 14-35zm2705-57c-14-29-56-98-92-153l-65-100-126-126-126-126-100-65c-97-63-196-118-212-118-4 0 24 17 62 38 146 78 236 143 353 256 121 116 234 268 300 402 14 29 28 52 30 50s-9-28-24-58zM181 798c17-35 59-103 92-153l61-90 111-111 110-110 110-73c124-83 143-98 70-56-84 48-196 134-283 219l-84 81-68 90c-60 81-160 242-160 258 0 18 13 1 41-55zm669-378c19-38 37-70 40-70 4 0 21 32 38 70l31 70h41V230h-20v230h-7c-5-1-23-34-42-75s-38-75-42-75c-5 0-27 35-48 78l-40 77-1-117V230h-30v260h46l34-70zm530 60c0-5-7-10-15-10s-15 5-15 10c0 6 7 10 15 10s15-4 15-10zm543 3-23-4V250h40v-20h-100v9c0 5 9 11 20 14l20 5v213l-22 9-23 9 55-1 55-1-22-4zm245-7c13-7 32-26 43-42l19-29v-80l-20-33-20-33-35-15-34-14h-111v260h68l67-1 23-13zM1110 352v-78l12-12c15-15 53-16 79-2l19 11v161l13-4 12-5 3-96 3-97h-15c-8 0-16 6-19 13l-4 12-16-13-16-13-31-1-31-1-17 17-17 17-4 84-3 85h32v-78zm258-49-3-128-27-12-26-13-16 6c-9 3-16 10-16 15v9h58l6 16c3 9 6 60 6 115v99h-40v20h61l-3-127zm112 36 5-84 28-3 28-3 25 16 24 15v150h20V230h-9c-5 0-11 5-13 10l-3 11-35-14-35-14-15 5c-8 2-23 11-32 20l-18 15v169l13-4 12-5 5-84zm230 76c0-19 4-19 41 1l31 15 14-5c8-3 14-10 14-16v-10h-56l-22-16-22-15V230h-20v200h10c6 0 10-7 10-15zM975 92c-4-5-174 69-180 78-3 4 38-11 90-33 51-23 92-43 90-45zm1105 18c-19-11-42-19-50-19h-15l40 19c53 24 70 24 25 0zM1075 65c44-13 74-24 66-24-18-1-151 38-151 44s-6 8 85-20zm315 1780-105-105h213c116 0 212 2 212 5 0 7-203 205-210 205-3 0-52-47-110-105zm-191-221-14-17v-152l22-31 23-32 34-16 34-16h75l42 25 42 24 14 33 14 33v160l-136 3-136 3-14-17zm185-25 24-11 17-33 18-32-7-35-6-35-26-24-26-24h-90l-29 33-29 32v31c0 37 15 68 44 91l21 18h32c18 0 43-5 57-11zm-97-47-17-19v-53l20-20 20-20h50l20 20 20 20v23c0 12-7 33-16 45l-15 22h-66l-16-18zm81-14c7-7 12-21 12-33s-5-26-12-33-21-12-33-12-26 5-33 12-12 21-12 33 5 26 12 33 21 12 33 12 26-5 33-12zm147 92c-3-5-3-49 0-97l6-88 17-24c10-13 33-32 52-42l35-19h77l35 17 35 16 19 31 19 31v164l-19 11-20 10h-250l-6-10zm206-37 28-17 12-28 11-28-6-33-6-34-26-24-26-24h-90l-29 33-29 32v33c1 61 44 106 103 107h29l29-17zm-104-41-17-19v-53l20-20 20-20h50l20 20 20 20v23c0 12-7 33-16 45l-15 22h-66l-16-18zm81-14c7-7 12-21 12-33s-5-26-12-33-21-12-33-12-26 5-33 12-12 21-12 33 5 26 12 33 21 12 33 12 26-5 33-12zm-598 17-64-65 54-55c30-31 68-65 84-77l28-21-13 24-14 24-5 118-5 118-65-66zm729-53-4-119-28-36c-15-20-41-44-57-52l-29-15h-98l-34 23-34 22-24 49-25 50-7-27c-4-14-16-39-28-55l-21-30-34-16-34-16h-42c-23 0-50 5-62 11-52 28-21-12 101-132l134-131 228 228c126 126 229 233 229 239 0 10-112 125-122 125-3 0-7-53-9-118zm-302-272c-11-27-24-50-28-50-3 0-16 23-27 50l-21 50h97l-21-50zm513-870V250h24c13 0 37 3 55 6l31 6 25 26 25 25v99l-29 29-29 29h-102V360z" />
    </g>
    <g fill="#287528" transform="matrix(.1 0 0 -.1 0 300)">
      <path d="m1 2343 1-658 14 80c58 326 236 641 489 866 195 173 471 307 730 353l80 14-657 1-658 1 1-657zm1764 641c44-8 130-30 192-49l111-35 99-49c448-226 749-637 826-1131 3-14 5 269 6 628l1 652-657-1-658-1 80-14zm-516-14c-208-37-401-114-579-231l-95-62-126-126-126-126-62-95c-78-118-139-246-180-374l-32-99-19-114-20-115v-248l15-102C109 718 501 256 1041 80l94-31 113-20 114-19h276l117 20 117 20 92 30c50 17 141 55 201 84l110 54 89 64 90 63 100 100 101 101 63 89 64 90 54 110c29 61 67 151 84 201l30 92 20 117 20 117v276l-19 114-20 113-31 94c-119 366-373 670-714 856-143 78-313 134-488 160l-98 15-132-1-133-1-106-18zm268-437-5-18v70l5-17c2-10 2-26 0-35zm86 28 5-19-9-13-9-14v33c0 36 5 42 13 13zm-436-23-5-13-1 19c-1 11 2 17 5 13 3-3 4-12 1-19zm113 12c0-5-5-10-11-10h-10l6 10c3 6 8 10 11 10 2 0 4-4 4-10zm144-6 6-15-10 6c-6 3-10 10-10 16 0 14 7 11 14-7zm23-16-5-13v50l5-12c2-7 2-19 0-25zm-247-85v-28l106-106 107-107-31-55-31-54 50-49 49-48 25 24 25 23 25-23 25-24 50 49 49 49-31 54-31 54 107 107 106 106v55h90v-80h-75l-95-95-95-96 28-49c15-28 27-55 27-62s-24-36-52-65l-53-53 48-47 47-48 71 71 71 71-31 54-31 55 110 109 110 110v35h90v-92l-50 4-50 3-87-87-86-86 31-55 30-54-74-74c-41-40-74-78-74-83 0-6 14-25 32-43l32-33 148 147 148 148v75h91l-3-42-3-43-26-3-25-3-133-133-132-133 3-43 3-43 17-11 18-11 77 77 78 76 53-30 54-31 99 99 99 99v55h90v-80h-75l-105-105-104-105-55 31-54 31-71-71-71-71 48-47 47-48 57 57 58 57 57-32 58-32 90 90 90 90v75h80v-80h-45l-106-106-106-106-56 32-55 31-46-42c-25-24-46-47-46-53 0-5 9-19 20-31l20-22-20-18c-11-10-20-23-20-29 0-13 81-96 93-96 6 0 32 14 60 31l50 31 106-106 106-106h45v-80h-80v65l-94 94-93 93-52-33-53-32-59 59-59 59-47-48-48-47 72-72 71-71 55 31 54 30 94-94 94-94h75v-90h-80v55l-94 94-93 93-57-33-58-32-79 79-79 79-37-38-38-37 145-145 145-145h105v-90h-90v35l-157 157c-87 87-163 158-169 158-13 0-64-52-64-66 0-5 34-43 75-84l74-74-31-54-31-54 74-74 73-74h76v-90h-80v45l-91 91-92 92 33 57 33 57-71 71-72 71-45-44c-25-24-45-49-45-55s24-35 54-64l54-54-29-47c-16-26-29-51-29-56s39-48 87-96l88-88h75v-80h-80v43l-106 107-106 108 31 54 31 54-50 49-50 49-25-24-25-23-25 23-25 24-50-49-49-49 30-53 31-54-18-21c-11-12-56-58-101-102l-83-80v-56h-90v80h75l90 90 89 90-29 55-30 54 53 54c28 29 52 57 52 63 0 5-20 30-45 54l-45 44-70-70-70-70 31-58 32-58-87-87-86-86v-55h-90v90h84l68 67c38 37 68 73 68 80s-13 34-30 61l-29 47 79 80 80 81-38 37-38 37-162-163-162-162v-35h-90v90h105l145 145 145 145-38 37-37 38-79-79-79-79-58 33-58 32-93-94-93-95v-53h-80v90h75l94 94 94 95 58-32 58-32 66 65c36 35 65 69 65 75s-20 31-45 55l-45 44-59-58-58-57-53 31-53 31-94-93-93-93v-65h-80v80h49l104 107 104 106 52-31c28-18 55-32 59-32s29 22 55 48l47 48-25 24-25 24 25 26 25 26-49 48-49 48-57-32-57-33-107 107-106 106h-45v80h80v-73l91-91 91-91 57 32 57 32 57-57 57-57 47 48 48 47-72 71-71 72-53-32-52-33-106 106-106 106h-75v80h90v-53l97-98c53-55 100-99 104-99 5 0 32 14 60 31l52 30 78-77 78-77 15 13 16 12v93l-127 127-128 127-30 3-30 3-3 43-3 42h91v-75l147-147 147-148 38 37 38 37-77 78-78 78 30 55 29 55-87 88-87 87-50-3-50-4v92h90v-28l110-112c61-61 110-113 110-115s-14-28-31-56l-30-52 70-71 71-70 45 44c25 24 45 48 45 53s-22 31-50 58c-27 27-50 53-50 58 0 6 13 32 29 59l29 49-97 97-96 96h-75v80h90v-27zM852 423l36-78 37 78 37 77h48V230h-30v220h-8c-5 0-23-34-41-75s-37-75-43-75c-5 0-26 37-48 83l-39 82-1-117V230h-30v270h47l35-77zm528 62v-15h-30v30h30v-15zm560 0v-15h-40V258l20-5c11-3 20-9 20-14v-9h-100v10c0 6 7 10 15 10h15v220h-30v30h100v-15zm240-14c14-10 31-29 37-42l13-24v-92l-21-27c-11-14-34-33-49-41l-29-15h-121v273l73-7 72-6 25-19zM1110 359v-70l10-20 11-19h22c12 0 33 7 45 16l22 15v149h30V231l-32 1c-18 0-45-3-60-7l-27-7-25 25-26 26v161h30v-71zm270-39V211l-11-25-11-24-22-6c-11-3-29-6-38-6h-18v30h49l11 19 10 20v180l-22 3c-12 2-23 9-26 16l-4 12h82V320zm100 31v-79l15-12 15-13 33 9 32 10 3 82 3 82h29V230h-15c-8 0-15 4-15 9v10l-27-15c-38-19-59-18-83 6l-20 20v170h30v-79zm240 65v-15l28 15c15 7 35 14 45 14h17v-30h-20c-10 0-31-5-45-12l-25-11V230h-30v200h30v-14zM1567 93l-5-18v70l5-17c2-10 2-26 0-35zm-410 5-5-13-1 19c-1 11 2 17 5 13 3-3 4-12 1-19zm90 0-5-13-1 19c-1 11 2 17 5 13 3-3 4-12 1-19zm253 13c0-5-9-11-20-14l-20-5v8c0 5 8 11 18 13 9 3 18 5 20 6 1 0 2-3 2-8zm333-42-10-10 6 33 5 33 4-24 4-23-9-9zm-476 34-17-5 6-10 7-11-11 7c-7 4-12 11-12 17v9l23-1 22-1-18-5zm167-9 6-15-10 6c-6 3-10 10-10 16 0 14 7 11 14-7zm-127 1758c-53-53-97-101-97-105v-7h400v8c0 8-192 202-200 202-3 0-49-44-103-98zm-190-230-17-19v-152l31-36 31-35 38-11 38-12 37 7 37 7 36 34 37 33 3 101 4 101h-259l-16-18zm191-28c42-28 54-95 25-144s-88-63-143-35c-36 19-52 47-52 91v34l17 26 17 26 31 14 32 14 25-6c14-3 35-12 48-20zm-108-44-20-20v-49l26-20c34-27 50-26 79 4l25 24v41l-20 20-20 20h-50l-20-20zm71 0 19-11v-55l-12-12c-7-7-22-12-34-12h-23l-15 22c-20 29-20 34 4 58 23 23 33 24 61 10zm159-5v-94l31-36 31-35 38-11 38-12 38 8 38 7 38 38 38 38v159l-18 16-19 17h-253v-95zm184 61 33-14 17-23 16-23v-67l-14-28-15-27-26-12c-35-16-70-15-105 3-37 19-50 43-50 93v39l21 27 20 26 32 9c18 5 33 10 35 10 1 1 18-5 36-13zm-84-56-20-20v-49l26-20c34-27 50-26 79 4l25 24v41l-20 20-20 20h-50l-20-20zm71 0 19-11v-55l-12-12c-13-13-47-16-64-4-6 4-14 17-18 29l-7 22 20 20c24 24 34 25 62 11zm139-40v-111l-16-32-16-32 81 80 81 79-62 63c-34 35-64 63-65 63-2 0-3-50-3-110zm-733 42-57-58 76-74 75-75-10 28-11 28v209h-8c-4 0-33-26-65-58zm393-162v-19l-37-40-38-39-40-11-40-10-36 8c-20 5-43 12-50 16-8 4 46-53 119-126l132-134 133 134c72 73 123 129 112 123-11-5-34-12-51-15l-30-6-38 9-38 8-30 29c-17 15-37 43-44 61-16 37-24 41-24 12zm44-147c-9-21-18-46-21-55-9-29-19-21-39 29-11 27-20 51-22 55l-4 8h102l-16-37zm506-878V260h99l26 23 26 22 6 37 6 38-12 28-12 28-28 17-29 17h-82V365zM1 658 0 0l653 1c358 1 641 3 627 6C786 84 375 385 149 833l-49 99-35 111c-19 62-41 148-49 192l-14 80-1-657zm2989 615c0-41-45-217-75-298-39-102-125-264-192-358l-58-82-100-100-100-100-90-64C2185 138 1948 42 1720 7c-14-3 269-5 628-6l652-1v650c0 358-2 650-5 650s-5-12-5-27z" />
    </g>
    <g fill="#143e14" transform="matrix(.1 0 0 -.1 0 300)">
      <path d="m1 2353 1-648 18 91c68 340 265 664 535 881 181 145 422 258 649 303l91 18-647 1-648 1 1-647zm1794 627c198-39 375-114 549-231l106-70 86-82c227-215 379-487 444-795l19-87v643l1 642-647-1-648-1 90-18zm-445 4c-407-52-751-237-1000-539-154-188-257-405-312-659l-22-101v-370l23-104c45-211 113-374 231-549l62-93 86-91c82-86 197-182 288-240 133-85 322-160 501-200l98-22h185l185-1 97 18 96 19-2 22c-2 13-7 29-11 37l-9 14 17-14 17-13v12c0 8 2 11 5 8s1-17-4-32l-11-26h14c28 0 192 63 281 107 50 25 128 70 175 101l85 56 125 126 126 125 56 85c111 167 188 350 230 543l22 102v390l-22 98c-71 319-212 571-440 789l-91 86-93 62c-174 117-340 187-544 230l-99 21-155 3c-85 3-171 2-190 0zm170-429v-35h-40v19l15-5 15-6v34l-17-7-18-6 20 20c26 26 25 26 25-14zm-465 15-20-9h15l15-1-11-8c-6-4-14-14-17-22l-5-15-1 33-1 32 23-1h22l-20-9zm113-28-3-17-18-3-17-3v62l21-11 20-11-3-17zm256 3 6-20h-25c-14 0-25 1-25 2s5 14 10 29l11 27 8-9c5-5 11-18 15-29zm206 22c0-7-9-20-20-30l-20-17v60h40v-13zm-520-12v-15l-17-1h-18l20-9 20-9h-17c-21-1-32 15-24 34l5 15h31v-15zm168-13 3-22h-41v10c0 6 7 13 16 17l16 6-14 9-13 10 15-5 15-4 3-21zm59-2 1-25-5 23c-2 12-8 22-13 22s-11-10-13-22l-4-23-2 28-1 28 18-3 17-3 2-25zm110-7-5-18v60l5-12c2-7 2-21 0-30zm231 9 3-22h-22l6 10 6 10h-10c-5 0-12-6-14-12l-5-13-1 18-1 17h25l-15 11-15 10 20-3 20-3 3-23zm51 1-2-28-4 23c-2 12-8 22-13 22s-11-10-13-22l-4-23-2 28-1 27h40l-1-27zm56-8v-30l-15-1-15-1 15 5 15 5-20 8-20 8h18l17 1v15c0 18-12 19-29 3l-12-13 7 18 7 18 16-3 16-3v-30zm53 17 4-12-19-1h-18l20-9 20-9h-22l-23-1v18c0 32 28 42 38 14zm34 9-14-8 16-6c18-7 22-27 5-27h-10l6 10 6 10h-15c-17 0-21 12-9 23 3 4 11 7 17 7h11l-13-9zm43-16c0-14-3-25-7-25-5 0-8 11-8 25s3 25 8 25c4 0 7-11 7-25zm-728-17-5-13v50l5-12c2-7 2-19 0-25zm40 0-5-13v50l5-12c2-7 2-19 0-25zm310 0-5-13v50l5-12c2-7 2-19 0-25zm413 2c5 0 11 8 13 18l5 17 1-23 1-23-17 3-18 3-1 15-1 15 4-12c3-7 8-13 13-13zm-750-79v-29l105-105c58-58 105-110 105-116s-12-33-27-61l-28-49 47-48 47-47 26 24 25 23 25-23 25-24 49 48 49 48-29 50c-16 27-29 52-29 56s47 54 105 112l105 105v65h90v-100h-79l-90-90c-50-50-91-92-91-95 0-2 14-28 31-56l30-52-58-59-58-58 48-47 47-48 69 69 70 69-32 58-32 58 113 113c61 62 112 119 112 126v12h90v-90h-105l-84-84-84-84 33-57 33-57-79-79-78-79 29-30c16-16 33-30 39-30s73 62 148 137l138 138v85h100v-90h-55l-132-132-133-133v-71l14-20 15-19 80 79 79 79 58-33 58-32 98 99 98 100v64l43-3 42-3 3-47 3-48h-76l-102-102-103-103-58 32-58 32-69-69-70-70 48-47 47-48 59 59 59 59 53-32 52-33 93 93 94 94v75h91l-3-47-3-48-30-3-30-3-102-101-101-101-55 31-54 31-49-50-48-49 24-25 23-25-23-25-23-24 49-45 48-45 54 31 54 31 102-101 101-101 30-3 30-3v-90l-42-3-43-3v76l-92 92-92 92-54-31-54-31-57 57-57 56-47-48-47-48 69-68 68-68 55 31 54 31 89-90 89-89 45-3 46-3 3-47 3-48h-91v45l-95 95-95 95-55-30-55-29-78 77-78 77-34-35-34-35 144-145 145-145h95v-90h-90v35l-160 160-160 160-37-38-38-37 78-78 78-79-31-53-31-53 73-74 72-73h87l-3-47-3-48h-90l-3 31-3 30-85 84c-46 47-84 88-84 92s13 29 29 56l29 50-69 68-69 68-45-44-45-44 56-57 56-56-33-57-32-58 83-83 84-84 45-3 46-3 3-48 3-48-48 3-48 3-3 25-3 25-102 103-102 103 32 58 31 59-47 46-47 46-24-25-24-25-28 27-28 27-45-44c-25-24-45-50-45-57s11-31 25-53 25-45 25-52c0-8-45-58-100-113l-100-100v-56l-47 3-48 3v90l45 3 45 3 83 82c45 45 82 85 82 89s-14 30-30 57l-31 50 56 55c30 31 55 59 55 64 0 4-19 27-43 50l-43 42-69-70-70-70 30-55 29-55-86-88-87-87-3-30-3-30h-90l-3 48-3 47h87l73 74 73 73-31 55-31 54 75 74c41 41 75 78 75 83 0 8-58 67-65 67-2 0-76-72-164-160L910 880v-30h-90v90h105l144 144 144 144-38 37-37 38-77-77c-42-42-80-76-83-76-4 0-29 13-56 29l-49 29-92-92-91-91v-55H589l3 48 3 47 45 3 45 3 91 90 91 90 53-31 53-31 70 69 69 69-38 42c-21 22-43 41-48 41-6 0-34-24-64-52l-53-53-58 32-58 32-86-87-86-87-3-40-3-40h-90v90l30 3 30 3 101 101 102 101 57-33 57-33 46 46 46 46-21 29-21 29 21 22 21 21-48 49-48 48-55-30-55-30-102 101-101 101-30 3-30 3v90h90l3-41 3-40 88-88 88-87 53 31 53 31 59-58 58-58 47 48 48 47-70 70-69 70-54-31-55-31-101 101-101 101h-86l3 48 3 47h90l3-32 3-32 96-95 96-94 54 30 55 31 78-78 78-77 11 6 11 7v104l-127 127-128 128h-55v90h100v-85l137-137c76-76 143-138 148-138 14 0 65 52 65 66 0 5-34 43-75 84l-74 74 31 54 31 54-84 84-84 84H940v90h100v-35l108-108 107-108-27-49c-16-28-28-56-28-63 0-6 30-41 66-76l65-65 47 47 47 47-57 57-57 58 32 57 32 58-90 90-90 90h-85v100h90v-29zM850 430c19-38 37-70 40-70s20 32 37 70l31 70h52V230h-40l-1 108-1 107-35-72-35-73h-23l-37 78-36 77-1-112-1-113h-30v270h46l34-70zm530 49v-20l-17 3-18 3-3 18-3 17h41v-21zm560 6v-15h-30V250h15c8 0 15-4 15-10v-10h-100v10c0 6 7 10 15 10h15v220h-30v30h100v-15zm214 1 33-14 21-27 22-28v-98l-15-29-15-30-30-15-29-15h-141v270h121l33-14zM1110 361v-69l19-23 18-23 32 13 31 13v158h40V230h-27c-16 0-44-3-65-6l-36-6-21 21-21 21v170h30v-69zm270-51V190l-21-21-20-20-32 3-32 3-3 18-4 19 20-6c10-4 27-4 36 0l16 6v208h-40v30h80V310zm100 46v-75l16-15c18-19 14-19 53-5l31 11v158h40V230l-32 1c-18 0-47-3-63-6l-31-7-24 20-25 20-4 86-3 86h42v-74zm242 63 4-12 21 12c12 6 31 11 42 11h21v-40h-29c-16 0-36-3-45-6l-16-6V230h-40v200h38l4-11zm-597-289-20-9 20-1 20-2-17-5c-9-2-19-12-21-21l-5-17-1 33-1 32 23-1h22l-20-9zm97-20 5-30h-17v30c0 17 2 30 4 30s6-13 8-30zm231 23-13-5-1-26-2-27-4 25c-3 14-10 28-17 32l-11 8 30-1 30-1-12-5zm146-36-2-22-4 23c-2 12-8 22-13 22s-11-10-13-22l-4-23-2 33-1 33 20-11 20-11-1-22zm128-4-5-18v70l5-17c2-10 2-26 0-35zm-353 22 5-15-22-1h-22l20-10 20-9-20 3-20 2-3 18-3 17 17-7 17-6-7 11-7 12h9c6 0 12-7 16-15zm124-3 4-12-19-1h-18l20-9 20-9h-22l-23-1v18c0 32 28 42 38 14zm40 7c-10-5-18-14-18-19s8-11 18-13l17-5-18-1-18-1-6 16-6 16 14 9c8 5 19 9 24 9 6-1 2-5-7-11zm119-20 1-24-5 23-5 24-14-6-15-6 6 11c4 5 12 8 18 6l12-4 2-24zm51 3 3-22h-41v18c0 38 33 41 38 4zm77 2V85l-18-1-17-2 15 5 15 4v15c0 17-12 18-30 2l-14-13 13 18 14 18 11-4c6-2 11-12 11-23zm53-6-3-31-15-4-15-5 15 11 15 11h-35v18c0 22 8 32 27 32h14l-3-32zm-668-8c5 0 11 8 13 18l5 17 1-22 1-23h-40l1 23 1 22 5-17c2-10 8-18 13-18zm90 0c5 0 11 8 13 18l5 17 1-22 1-23h-40l1 23 1 22 5-17c2-10 8-18 13-18zm47-2-5-13v50l5-12c2-7 2-19 0-25zm-167 2457c0-8 5-15 10-15 6 0 10 7 10 15s-4 15-10 15c-5 0-10-7-10-15zm261 9 1-19 5 13c3 7 2 16-1 19-3 4-6-2-5-13zm199 6c0-5 5-10 10-10 6 0 10 5 10 10 0 6-4 10-10 10-5 0-10-4-10-10zm-205-710-100-100h410l-100 100c-55 55-102 100-105 100s-50-45-105-100zm-183-226-22-15v-144l20-33 20-33 43-19c23-11 51-20 62-20s39 9 62 20l43 19 20 33 20 33v175h-246l-22-16zm179-27 34-23 11-34 11-34-8-31-9-30-25-22-26-23h-86l-26 21-27 20-11 38-11 38 17 36 16 35 32 16c18 8 41 16 53 16h21l34-23zm-99-50c-12-13-22-30-22-38 0-18 28-59 41-59 5 0 0 9-11 20l-20 20v37l18 16 19 17h43l15-24 16-23-10-26c-5-14-15-27-21-30l-10-5 12 2c7 1 19 15 27 30l13 28-19 27-20 26-24 3-25 3-22-24zm230-8 3-101 32-28 32-29 41-12 41-12 46 19 46 19 21 28 21 28 3 73 4 74-21 21-21 21h-252l4-101zm188 66c16-8 36-25 44-37l16-22v-88l-29-29-29-29h-89l-26 20-26 20-11 36-12 35 12 29c28 68 91 95 150 65zm-89-61c-12-15-21-32-21-38 0-16 29-56 41-56 5 0 0 9-11 20-24 24-25 38-4 68l15 22h39l20-20c11-11 20-27 20-35s-9-24-20-35-16-20-11-20c13 0 41 40 41 58 0 7-11 24-25 37l-24 25h-40l-20-26zm-518 14c-29-30-53-58-53-64 0-5 30-39 66-74l67-65-8 20c-4 11-11 69-14 128l-6 108-52-53zm727-59v-110l-11-22-11-22 76 75 76 74-57 58c-32 32-61 58-65 58h-8v-111zm-353-139-18-39-35-22-35-21-39-5-39-5-33 11-33 11 128-127 127-128 128 128 127 128-28-11c-16-5-43-10-60-10h-32l-43 20-42 19-18 31c-9 17-21 38-27 45l-10 14-18-39zm73-80c0-5-11-35-25-67l-26-57-24 53c-14 29-25 59-25 67v14h100v-10zm490-914V260h81l29 15 29 15 10 36 10 36-6 28-5 29-22 20-21 20-52 7-53 7V366zm-360-261c0-8 5-15 10-15 6 0 10 7 10 15s-4 15-10 15c-5 0-10-7-10-15zm130 0c0-8 5-15 10-15 6 0 10 7 10 15s-4 15-10 15c-5 0-10-7-10-15zM1 648 0 0l643 1h642l-87 19C890 85 618 237 403 464l-82 86-70 106C134 830 59 1007 20 1205l-18 90-1-647zm2981 560c-7-40-31-127-53-193l-40-120-51-95c-28-52-73-129-101-170l-51-75-121-121-120-120-94-63c-167-111-357-191-549-231l-87-19h643l642-1v640c0 352-1 640-3 640s-9-33-15-72z" />
    </g>
    <g fill="#010501" transform="matrix(.1 0 0 -.1 0 300)">
      <path d="M0 2368c0-347 2-629 4-627s11 42 21 89c32 163 115 354 226 521l63 94 120 121 121 120 100 67c167 110 379 200 540 228 36 6 65 13 65 15s-283 4-630 4H0v-632zm1835 607c133-31 228-66 359-133l109-55 96-72 96-72 100-104 100-105 57-84c106-160 176-320 224-515l22-90 1 628 1 627-632-1h-633l100-24zm-475 4C738 2927 200 2459 54 1842l-24-103-10-119-10-120 10-125 11-125 28-114 29-114 42-99c51-118 74-159 159-283l65-95 101-101 102-101 107-72c228-152 443-228 712-252l124-11 122 11c68 6 149 16 182 23l58 13-5 40-6 40 15-19 14-20v34h10c13 0 13-3-2-35-6-14-9-27-6-30 2-3 43 8 90 24 497 168 866 579 983 1095 8 37 20 124 26 192l11 124-11 124c-24 269-100 484-252 712l-72 107-101 102-101 101-95 65c-174 121-322 188-511 234l-104 25-120 10c-132 11-129 11-265-1zm-290-398c0-5-8-12-17-14l-18-5 39 1 39 2 4-12 5-13-19-1h-18l19-8 20-8-11-6c-16-10-41 2-45 21l-3 16-17-17c-9-9-19-17-22-17-8 0-7 55 1 63 10 10 43 8 43-2zm86-11h14l1-12 1-13 5 13c6 14 33 16 33 2 0-5-4-10-10-10-5 0-10-8-11-17l-1-18-5 13-5 13-12-17-13-17-11 7-12 7 1 37 1 37 5-12c2-7 11-13 19-13zm268-12 14-33 1 23 1 22h68l5 13 5 12 1-36 1-37-15-6-15-5-12 19c-15 23-28 26-28 6v-15l-35 2c-38 2-39 4-25 41 12 34 17 33 34-6zm190 26 16-6v-38h-14c-8 0-17-6-19-12l-5-13-1 38c-1 40-1 40 23 31zm-387-51-5-18v70l5-17c2-10 2-26 0-35zm323 17v-30h-20v60h20v-30zm400-4 9-21v23l1 22h20v-25c0-27 0-27-44-29l-28-2-9 23-9 23h-34l20-14 19-15-12-11-11-12-12 7-12 8 13 8 14 9-35-1h-35l19-8 20-8-14-8-13-8-12 17-13 16-5-20-5-20h-37l15 10 15 10-15 1c-8 1-21 1-27 0l-13-2v16c0 21-17 19-23-2l-5-18-1 27-1 26h48l47-1 7-11 8-11v25h40v-25l8 11c8 14 48 22 75 15l19-4 8-21zm-672-3-3-28h-30l-1 28-1 27h38l-3-27zm62 2v-25h-10c-5 0-11 8-11 18l-1 17-5-17c-2-10-9-18-14-18h-9v50h50v-25zm340 1v-24l-17-6-16-7-8 8-8 8 5 23 6 22h38v-24zm-470-98v-33l106-106 107-107-32-53-33-52 46-46 45-45 26 24 25 24 28-27 28-27 44 45 44 45-31 58-32 58 104 104 105 105v65h100v-100h-75l-92-92-92-92 31-54 31-54-57-57-56-57 45-44 45-44 67 66 66 66-31 55-30 54 108 108 109 109 3 20 3 21 48 3 47 3v-101h-95l-86-86-87-87 29-47c16-26 29-51 29-56s-34-43-75-84l-75-76 35-34 35-34 140 139 139 139 3 45 3 46 48 3 47 3v-101h-55l-127-127-128-128v-91l12-12 12-12 78 77 78 77 55-29 55-30 95 95 95 95v65h100v-100h-75l-104-104-104-104-49 29c-27 16-54 29-59 29-14 0-129-110-129-124 0-12 70-86 83-86 4 0 32 23 62 51l54 51 54-31 53-30 87 87 87 87v85h100v-100h-55l-104-104-104-105-58 32-58 32-45-45-46-44 25-26 25-26-25-24-25-24 46-47 46-47 50 29c27 16 52 29 56 29s52-45 107-100l100-100h65v-100h-100v85l-85 85-86 85-58-32-57-32-57 57-57 56-45-44-45-44 67-68 66-67 58 32 58 32 93-92 93-93h85V970h-100v55l-87 87c-48 49-91 88-95 88s-29-13-56-29l-49-29-74 74c-41 40-79 74-85 74-5 0-23-14-39-30l-29-31 144-144 145-145h95V839l-47 3-48 3-3 20-4 20-156 157-156 158-33-32-33-32 77-78 78-79-32-58-32-58 72-71 72-72h85V620h-100v65l-89 89-89 89 29 49c16 27 29 52 29 56s-29 37-65 72l-65 64-45-44-45-44 56-57 57-57-31-55-30-54 86-86 87-87h85V520h-100v55l-105 105-104 104 31 54 31 54-46 46-46 46-26-24-25-23-25 23-26 24-45-45-46-46 31-54 31-55-105-104-105-105v-55h-100v100h86l88 85 88 85-32 56-33 56 57 57 56 57-45 44-45 44-67-66-66-66 32-57 33-58-91-91-91-91v-55H980v100h86l73 74 73 73-31 50c-17 28-31 54-31 59s34 43 75 84l75 74-32 33-32 33-158-157-157-157-3-20-3-21-47-3-48-3v101h95l145 145 145 145-33 32-32 33-79-79-78-78-50 31c-28 17-54 31-59 31s-49-39-97-88l-87-87v-55H590v100h89l93 92 92 91 56-31 57-31 66 67 67 68-45 44-45 44-57-56-57-57-57 32-57 31-86-84-86-85v-85H520v100h65l100 100c55 55 103 100 107 100s29-13 56-29l50-29 46 47 47 47-21 19c-25 23-25 33 0 60l20 21-45 44-45 44-55-29-54-30-62 60c-34 33-80 79-102 103l-40 42h-67v100h100v-85l87-87 86-87 58 32 58 32 56-55 55-55 45 45 45 45-65 65-66 65-58-32-58-31-104 104-104 104h-75v100h100v-65l95-95 95-95 55 30 55 29 47-44c25-25 60-59 77-77l30-32 13 11 13 10v93l-127 127-128 128h-55v101l48-3 47-3 3-41 3-40 142-142 143-142 32 33 32 33-75 74c-41 41-75 78-75 82s14 30 30 59l31 52-88 83-87 84h-96v100h100v-45l110-110 109-109-31-54-31-54 66-66 67-66 45 44 45 44-56 57-56 56 31 55 31 54-93 92-92 92h-75v100h100v-32zM855 428l34-73 32 73 33 72h56V220h-40v108l-1 107-35-67-34-68h-26l-36 73-37 72V332l-1-113-17 3-18 3-3 138-3 137h62l34-72zm533 55-3-18-23-3-22-3v41h51l-3-17zm562 2v-15h-40V262l21-5 21-6-4-13-5-13h-108l-3 18-3 17h41v210h-40v30h120v-15zm231-8 34-23 14-42 13-43-6-34-7-34-25-30-25-30-37-11c-20-5-61-10-89-10h-53v280h147l34-23zM1122 348l3-83 18-3c10-2 29-1 43 2l24 6v160h40V220h-40v24l-12-12-12-12h-73l-19 21-19 21-4 84-3 84h51l3-82zm258-40V187l-17-19-16-18h-77v42l19-5 18-4 17 9 16 9v199h-40v30h80V308zm102 46 3-77 17-11 17-10 28 10 28 9 3 78 3 77h39V220h-40v21l-19-11c-23-12-71-13-87-2-6 4-16 17-23 29l-11 22v151h39l3-76zm238 66v-11l20 11 21 11 27-3 27-3v-30l-35-5c-20-4-41-10-48-14l-12-7V220h-40v210h40v-10zm-134-290h14l-1-27-1-28-8 25-8 25-7-22-7-22-21-7-20-6-12 16-12 16-19-1-19-1 18-5c9-2 17-9 17-14V69l-17 3-18 4v27c1 15-3 27-7 27s-8-9-8-19c0-11-4-23-10-26l-10-6v49l-12 6c-7 3 7 4 31 2l44-4 7-12 8-12 6 11c4 6 16 11 27 11h19l1 13 1 12 5-12c2-7 11-13 19-13zm172-2c7 2 19-1 26-8l14-11 7 11c3 5 13 10 21 10h14V60h-20c-11 0-19 3-19 8 1 4 1 13 0 20l-1 13-16-16-17-16-10 10-9 9-14-5-14-5v26l-14-20-15-19-12 12-11 11-14-5-14-5-1 23-2 24-4-22c-2-13-9-23-14-23h-9v41l15 5 15 6 15-12 15-12v22h38l5-12 5-13 2 25 1 25 12-16 12-16 13 5zm-600-15c2-13 8-23 13-23h9v41l10-6 10-6v23l13-5 12-4-3-21-3-22h21l1 23 2 22 4-22c5-27 23-31 23-5v18l52-1h51l4-12 5-13-19-1h-18l19-8 20-8-11-6-11-7-16 6c-9 3-16 12-16 20s-4 14-10 14c-5 0-10-7-10-15V80l-17-1c-10-1-33-2-50-4l-33-3v19l-20-11-20-11-10 6c-6 3-10 17-10 31v24h-35l15-10 15-10h-25V95c0-8-4-15-10-15h-10v61l28-3 27-3 3-22zm-18 2427c0-5 5-10 10-10 6 0 10 5 10 10 0 6-4 10-10 10-5 0-10-4-10-10zm350 0c0-5 5-10 10-10 6 0 10 5 10 10 0 6-4 10-10 10-5 0-10-4-10-10zm110 19v-10l10 6c6 3 10 8 10 11 0 2-4 4-10 4-5 0-10-5-10-11zm310-14c0-8 5-15 10-15 6 0 10 7 10 15s-4 15-10 15c-5 0-10-7-10-15zm-510-700-95-95h390l-95 95c-52 52-97 95-100 95s-48-43-100-95zm-170-212c-8-3-21-12-27-21l-13-16v-118l16-34 16-34 35-21 34-21 53 4 52 4 26 20c14 10 32 28 39 39l13 20 4 93 4 92-118-1c-66 0-126-3-134-6zm159-27 27-14 18-35 19-34-7-35-6-35-23-20c-12-11-33-26-46-33l-23-12-33 6-33 7-31 35-31 35v30c0 16 7 43 15 59l15 29 28 15c35 19 76 20 111 2zm131-48v-83l18-34 17-34 35-19 35-18h77l34 16 35 17 16 30 16 31 5 62 5 62-26 26-26 26h-241v-82zm206 43 31-19 12-31 13-31-6-33-6-34-23-21c-12-11-34-25-49-31l-28-11-30 7-30 6-30 34-30 34v30c0 16 7 43 15 59l15 29 28 15c15 9 41 15 57 16h30l31-19zm-623-53-53-54 58-57 57-56-3 87c-1 48-4 97-5 110l-2 23-52-53zm735-49c-2-57-8-113-12-124l-9-20 69 67 69 68-57 56-56 57-4-104zm-354-137-11-29-38-29-38-29h-127l118-117c64-65 117-118 117-118s54 53 119 119l118 118-50-5-50-4-35 11-36 12-28 33c-15 18-33 41-38 50l-10 18-11-30zm60-109c-9-21-20-50-26-65-17-46-21-41-75 90l-5 12h122l-16-37zm506-888V257l48 7 47 6 23 25 22 26v90l-25 24-24 25h-23c-13 0-33 3-45 6l-23 6V365zm-524-252c-12-12-5-23 14-23 11 0 20 4 20 9 0 11-26 22-34 14zm234-9V89l10 6 10 6-5 10c-9 14-15 11-15-7zm56 7c-4-7-5-15-2-18 9-9 19 4 14 18l-4 13-8-13zm-136-11c0-5 5-10 10-10 6 0 10 5 10 10 0 6-4 10-10 10-5 0-10-4-10-10zM1 633 0 0l628 1 627 1-90 22C970 72 810 142 650 248l-84 57-105 100-104 100-72 96-72 96-55 109C91 937 56 1032 25 1165L1 1265V633zm2975 535c-25-117-68-237-126-353l-51-100-67-94-67-95-96-95-95-96-95-67-94-67-100-51c-120-60-185-84-330-120L1745 2l628-1 627-1v625c0 344-1 625-3 625s-12-37-21-82z" />
    </g>
  </g>
</svg>